<svg id="Layer_1" data-name="Layer 1" xmlns="http://www.w3.org/2000/svg" viewBox="0 0 782.77 310.59"><defs><style>.cls-1{fill:#f3e0bd;}</style></defs><path class="cls-1" d="M20.7,88.6,6.45,80.37l1.6-2.78,14.26,8.24a3,3,0,0,1-.52,1.38A4.6,4.6,0,0,1,20.7,88.6Z" transform="translate(-0.01 0)"/><path class="cls-1" d="M277.26,216v-4.57L270,209.18a26.18,26.18,0,0,0-1.34-5l5.14-5.58-2.29-4-7.4,1.66a28,28,0,0,0-3.7-3.69l1.67-7.4-4-2.29L252.51,188a26.18,26.18,0,0,0-5-1.34l-2.27-7.25H243v13.72a20.59,20.59,0,1,1-17.75,31L213.32,231l1.08,1.86,7.39-1.65a27.89,27.89,0,0,0,3.69,3.68l-1.65,7.4,4,2.29,5.57-5.13a26.77,26.77,0,0,0,5.06,1.34l2.25,7.25h4.57l2.27-7.25a27.74,27.74,0,0,0,5-1.34l5.58,5.13,4-2.29-1.67-7.4a27.38,27.38,0,0,0,3.7-3.68l7.4,1.65,2.29-4-5.14-5.57a26.87,26.87,0,0,0,1.34-5Z" transform="translate(-0.01 0)"/><path class="cls-1" d="M243,197.73v7.1a9.15,9.15,0,1,1-8,13.65l-5.83,3.37a16,16,0,1,0,13.79-24.12Z" transform="translate(-0.01 0)"/><path class="cls-1" d="M52.05,224.15a20.58,20.58,0,1,1-17.75-31V179.43H32l-2.26,7.25a26.18,26.18,0,0,0-5,1.34l-5.57-5.14-4,2.29,1.66,7.4a28,28,0,0,0-3.69,3.69l-7.4-1.66-2.29,4,5.14,5.58a27,27,0,0,0-1.35,5L0,211.45V216l7.24,2.26a26.89,26.89,0,0,0,1.35,5.05L3.46,228.9l2.29,4,7.4-1.65a26.74,26.74,0,0,0,3.69,3.68l-1.66,7.4,4,2.29,5.57-5.13a28,28,0,0,0,5,1.34L32,248.08h4.6l2.27-7.25a28,28,0,0,0,5-1.34l5.58,5.13,4-2.29-1.67-7.4a27.38,27.38,0,0,0,3.7-3.68l7.4,1.65L64,231.05Z" transform="translate(-0.01 0)"/><path class="cls-1" d="M42.26,218.51a9.15,9.15,0,1,1-8-13.65v-7.1a16,16,0,1,0,13.79,24.13Z" transform="translate(-0.01 0)"/><path class="cls-1" d="M172.93,36.59V32l-7.25-2.27a26.18,26.18,0,0,0-1.34-5l5.14-5.58-2.29-4-7.4,1.67a28,28,0,0,0-3.69-3.7l1.66-7.4-4-2.29-5.58,5.15a25.49,25.49,0,0,0-5-1.35L140.91,0h-4.57l-2.26,7.24A26,26,0,0,0,129,8.59l-5.57-5.15-4,2.29,1.65,7.4a28,28,0,0,0-3.68,3.7L110,15.16l-2.29,4,5.13,5.58a27.74,27.74,0,0,0-1.34,5L104.28,32v4.58l7.25,2.26a27.65,27.65,0,0,0,1.34,5l-5.09,5.61.67,1.15,11.9-6.87a20.59,20.59,0,1,1,36.55,0l11.91,6.87.67-1.15-5.14-5.57a26.87,26.87,0,0,0,1.34-5Z" transform="translate(-0.01 0)"/><path class="cls-1" d="M138.61,18.29a16,16,0,0,0-16,16,15.74,15.74,0,0,0,1.69,7.15l5.88-3.38a9.2,9.2,0,1,1,17.58-4.13q0,.3,0,.6a9.12,9.12,0,0,1-.71,3.53l5.88,3.38a15.74,15.74,0,0,0,1.69-7.15,16,16,0,0,0-16-16Z" transform="translate(-0.01 0)"/><path class="cls-1" d="M203.31,236.78l-34,19.64,1.82,5.62h5.08l2.5-7.75a31.67,31.67,0,0,0,5.59-1.45l6.19,5.5,4.39-2.45L193,248a30.39,30.39,0,0,0,4.1-4l8.2,1.78,2.53-4.25Z" transform="translate(-0.01 0)"/><path class="cls-1" d="M34.28,128.85l-8.2-1.79-2.54,4.25,5.68,6a28.14,28.14,0,0,0-1.48,5.41l-8,2.43V150l8,2.43a28,28,0,0,0,1.48,5.4l-5.68,6,2.54,4.24,8.2-1.77h0V128.85Z" transform="translate(-0.01 0)"/><path class="cls-1" d="M205.25,25.94l.67-1.89-2.66-2a11,11,0,0,0,.18-2.29l2.95-1.55-.37-2-3.3-.39a13.26,13.26,0,0,0-1-2.08l1.78-2.81L202.19,9.4l-3.06,1.31a11.12,11.12,0,0,0-1.89-1.3l.12-3.33-1.89-.67-2,2.66a12.56,12.56,0,0,0-2.29-.18L189.61,5l-2,.37-.4,3.3a12.33,12.33,0,0,0-2.07,1l-2.82-1.78-1.53,1.31,1.31,3.06a12.19,12.19,0,0,0-1.3,1.89L177.47,14l-.67,1.9,2.66,2a12.45,12.45,0,0,0-.18,2.28l-2.94,1.56.36,2,3.31.4a12.33,12.33,0,0,0,1,2.07L179.24,29l1.37,1.5,3.06-1.31a12.28,12.28,0,0,0,1.9,1.3l-.13,3.33,1.89.67,2-2.66a12.56,12.56,0,0,0,2.29.18L193.17,35l2-.36.39-3.31a12.43,12.43,0,0,0,2.08-1l2.82,1.77,1.52-1.3-1.37-3.05a12.28,12.28,0,0,0,1.3-1.9Zm-16.88,2.57a8.48,8.48,0,1,1,.07,0Z" transform="translate(-0.01 0)"/><path class="cls-1" d="M193.74,13.33a6.87,6.87,0,1,0,.09,0ZM190,23.84a4,4,0,1,1,5.13-2.44A4,4,0,0,1,190,23.84Z" transform="translate(-0.01 0)"/><path class="cls-1" d="M101.7,27.51l.38-1.1-1.54-1.16a6.54,6.54,0,0,0,.11-1.32l1.7-.9-.21-1.14-1.91-.23a6.6,6.6,0,0,0-.57-1.2l1-1.63-.75-.89-1.77.76A6.89,6.89,0,0,0,97,18L97.12,16,96,15.63l-1.16,1.55a6.54,6.54,0,0,0-1.32-.11l-.9-1.7-1.14.21-.23,1.91a6.6,6.6,0,0,0-1.2.57l-1.63-1-.89.76.76,1.77a8.11,8.11,0,0,0-.75,1.09l-2-.07-.39,1.1,1.55,1.16a6.54,6.54,0,0,0-.11,1.32l-1.7.9.21,1.14,1.91.23a6.6,6.6,0,0,0,.57,1.2l-1,1.63.76.89,1.77-.76a8.11,8.11,0,0,0,1.09.75L90.2,32.1l1.1.39,1.16-1.55a6.54,6.54,0,0,0,1.32.11l.9,1.7,1.14-.21.23-1.91a6.6,6.6,0,0,0,1.2-.57l1.63,1,.89-.75L99,28.54a6.89,6.89,0,0,0,.75-1.1ZM91.92,29a5.23,5.23,0,1,1,6.68-3.19A5.23,5.23,0,0,1,91.92,29h0Z" transform="translate(-0.01 0)"/><path class="cls-1" d="M95,20.24a4.07,4.07,0,1,0,2.48,5.2A4.06,4.06,0,0,0,95,20.24Zm-2.15,6.08a2.24,2.24,0,1,1,.05,0l-.05,0Z" transform="translate(-0.01 0)"/><path class="cls-1" d="M96.29,54.79l3.22-1.69-.4-2.16-3.6-.43a13.77,13.77,0,0,0-1.08-2.26l1.94-3.07L95,43.51l-3.34,1.42a12.52,12.52,0,0,0-2.06-1.41l.14-3.64-2.07-.73-2.18,2.91a13,13,0,0,0-2.49-.2l-1.7-3.22L79.1,39l-.44,3.61a11.93,11.93,0,0,0-2.25,1.08l-3.08-1.94-1.72,1.42L73,46.56a12.08,12.08,0,0,0-1.42,2L68,48.48l-.74,2.07,2.91,2.17a13.11,13.11,0,0,0-.2,2.5l-3.21,1.69.39,2.16,3.62.43a12.62,12.62,0,0,0,1.07,2.26L69.9,64.83l1.42,1.68,3.33-1.43a13.31,13.31,0,0,0,2.07,1.42L76.62,69l7.15-4.13a9.71,9.71,0,0,1-4-.54,9.86,9.86,0,1,1,12.59-6,9.09,9.09,0,0,1-1.11,2.2l5.12-3L96,57.25A12.69,12.69,0,0,0,96.29,54.79Z" transform="translate(-0.01 0)"/><path class="cls-1" d="M85.71,47.77a7.67,7.67,0,1,0,4.66,9.8A7.66,7.66,0,0,0,85.71,47.77Zm1.53,8.81A4.38,4.38,0,1,1,84.57,51a4.39,4.39,0,0,1,2.67,5.6Z" transform="translate(-0.01 0)"/><path class="cls-1" d="M216.61,64.93l.41-2.78-4.21-2a16.35,16.35,0,0,0-.38-3.19L216.07,54l-1-2.61-4.65.34a17.93,17.93,0,0,0-1.91-2.58l1.66-4.35-2.2-1.75-3.86,2.64a16.18,16.18,0,0,0-3-1.27l-.73-4.61-2.72-.42-2,4.21a15.62,15.62,0,0,0-3.19.38l-2.94-3.64-2.62,1,.36,4.65a16.09,16.09,0,0,0-2.58,1.91l-4.36-1.66-1.74,2.2,2.63,3.86a16.72,16.72,0,0,0-1.27,3l-2.32.37L183.39,59A12.66,12.66,0,1,1,203.51,70.6l4.66,2.7,3.48,1.33,1.74-2.21-2.63-3.85A15.63,15.63,0,0,0,212,65.63Z" transform="translate(-0.01 0)"/><path class="cls-1" d="M205.12,56.86a9.85,9.85,0,0,0-19,3.75l5.1,2.94a4.4,4.4,0,0,1-.42-.84,5.63,5.63,0,1,1,7.31,3.14h0a5.36,5.36,0,0,1-2.2.39l4.88,2.83A9.84,9.84,0,0,0,205.12,56.86Z" transform="translate(-0.01 0)"/><path class="cls-1" d="M97.4,250.33l-4.3-2.49A9.53,9.53,0,1,1,75.3,241a9.37,9.37,0,0,1,1.5-2.6L72.49,236,71,235.6l-1.06,1.84L72.27,240a12.61,12.61,0,0,0-.62,2.34l-3.36,1v2.15l3.36,1a12.61,12.61,0,0,0,.62,2.34l-2.38,2.66L71,253.35l3.43-.77a12.56,12.56,0,0,0,1.71,1.71l-.77,3.43,1.84,1,2.58-2.37a11.88,11.88,0,0,0,2.34.62l1,3.36H85.2l1-3.36a12.61,12.61,0,0,0,2.34-.62l2.59,2.37,1.82-1-.76-3.43A13.81,13.81,0,0,0,94,252.58l3.43.77,1.06-1.84Z" transform="translate(-0.01 0)"/><path class="cls-1" d="M88.38,245.12a4.23,4.23,0,1,1-6.77-3.91l-3-1.7a7.42,7.42,0,1,0,12.57,7.27Z" transform="translate(-0.01 0)"/><path class="cls-1" d="M65.35,255.67,65,254.3l-2.35-.13a8.09,8.09,0,0,0-.79-1.41L63,250.69l-1-1-2.09,1.06a9.22,9.22,0,0,0-1.39-.82l-.06-2.35-1.37-.38-1.28,2a7.22,7.22,0,0,0-1.61,0l-1.23-2-1.34.31-.12,2.34a8.09,8.09,0,0,0-1.41.79L48,249.51l-1,1,1.06,2.09a8.45,8.45,0,0,0-.82,1.39l-2.35.07-.38,1.36,2,1.28a8.66,8.66,0,0,0,0,1.61l-2,1.24.35,1.37,2.35.12a8.09,8.09,0,0,0,.79,1.41l-1.2,2.06,1,1,2.09-1.06a8.45,8.45,0,0,0,1.39.82l.07,2.35,1.36.38L54,266a8.66,8.66,0,0,0,1.61,0l1.23,2,1.38-.35.12-2.35a9.7,9.7,0,0,0,1.41-.78l2.07,1.11,1-1-1.06-2.09a8.45,8.45,0,0,0,.82-1.39l2.35-.07.38-1.36-2-1.28a8.66,8.66,0,0,0,0-1.61Zm-8.9,8.1A6.37,6.37,0,1,1,61.06,256a6.37,6.37,0,0,1-4.61,7.74Z" transform="translate(-0.01 0)"/><path class="cls-1" d="M53.66,252.8a5,5,0,1,0,6,3.69l0-.11a4.93,4.93,0,0,0-6-3.58Zm2,7.61a2.83,2.83,0,1,1,2-3.44,2.84,2.84,0,0,1-2,3.44Z" transform="translate(-0.01 0)"/><path class="cls-1" d="M267.1,160.85v-2.34l-3.69-1.15a14.12,14.12,0,0,0-.69-2.57l2.63-2.85-1.17-2-3.77.84a13.92,13.92,0,0,0-1.89-1.87l.85-3.77-2-1.17-2.84,2.62a12.11,12.11,0,0,0-2.58-.68l-1.15-3.7h-2.33l-1.15,3.7a12,12,0,0,0-2.57.68L243,144.94v6.67a10.49,10.49,0,1,1,0,16.15v6.67l1.79-1.65a14.12,14.12,0,0,0,2.57.69l1.15,3.68h2.33l1.15-3.68a14.45,14.45,0,0,0,2.58-.69l2.84,2.62,2-1.17-.85-3.77a13.43,13.43,0,0,0,1.89-1.88l3.77.85,1.17-2-2.63-2.83a14.45,14.45,0,0,0,.69-2.58Z" transform="translate(-0.01 0)"/><path class="cls-1" d="M249.61,151.51a8.21,8.21,0,0,0-6.68,3.47v9.38a8.16,8.16,0,1,0,6.68-12.85Zm0,13a4.66,4.66,0,1,1,4.66-4.67,4.66,4.66,0,0,1-4.66,4.67Z" transform="translate(-0.01 0)"/><path class="cls-1" d="M236.87,265.51l.33-2.3-3.49-1.67a13,13,0,0,0-.31-2.64l3-2.44-.86-2.16-3.86.3a14.39,14.39,0,0,0-1.59-2.13l1.37-3.61-1.85-1.35-3.19,2.19a13.6,13.6,0,0,0-2.44-1l-.62-3.82-2.31-.33L219.39,248a13.8,13.8,0,0,0-2.64.32l-2.44-3-2.16.87.3,3.85a14.46,14.46,0,0,0-2.13,1.6l-3.61-1.37-1.44,1.83,2.19,3.18a13.4,13.4,0,0,0-1,2.45l-3.82.62-.33,2.3,3.49,1.67a14.64,14.64,0,0,0,.31,2.64l-3,2.44.86,2.16,3.85-.3a13.24,13.24,0,0,0,1.6,2.12L208.05,275l1.83,1.44,3.18-2.18a13.4,13.4,0,0,0,2.45,1l.61,3.82,2.31.33L220.1,276a14.65,14.65,0,0,0,2.63-.32l2.45,3,2.16-.87-.31-3.85a13.72,13.72,0,0,0,2.13-1.59l3.62,1.37,1.43-1.83L232,268.68a13.59,13.59,0,0,0,1-2.45Zm-18.61,6.75a10.48,10.48,0,1,1,11.86-8.89,10.48,10.48,0,0,1-11.86,8.89h0Z" transform="translate(-0.01 0)"/><path class="cls-1" d="M220.9,253.85a8.16,8.16,0,1,0,6.91,9.24h0A8.16,8.16,0,0,0,220.9,253.85Zm-1.84,12.81a4.66,4.66,0,1,1,5.28-4A4.65,4.65,0,0,1,219.06,266.66Z" transform="translate(-0.01 0)"/><path class="cls-1" d="M280.83,181.28l.17-1.18-1.78-.85a6.72,6.72,0,0,0-.16-1.34l1.53-1.25-.44-1.1-2,.16a6.17,6.17,0,0,0-.81-1.09l.7-1.83-.93-.74-1.62,1.12a6.52,6.52,0,0,0-1.25-.53l-.32-2-1.17-.16-.85,1.77a7.88,7.88,0,0,0-1.29.2L269.37,171l-1.11.44.16,2a7.8,7.8,0,0,0-1.08.81l-1.84-.7-.74.94,1.12,1.62a6.17,6.17,0,0,0-.53,1.24l-2,.32-.17,1.18,1.78.84a7.66,7.66,0,0,0,.16,1.35l-1.51,1.16.44,1.1,2-.15a8.45,8.45,0,0,0,.81,1.08l-.69,1.84.93.73,1.62-1.11a8.08,8.08,0,0,0,1.25.53l.31,1.94,1.17.17.85-1.78a6.82,6.82,0,0,0,1.35-.16l1.24,1.53,1.1-.44-.15-2a6.62,6.62,0,0,0,1.08-.81l1.84.7.73-.93-1.11-1.62a8.08,8.08,0,0,0,.53-1.25Zm-9.48,3.43a5.34,5.34,0,1,1,6-4.58v.05a5.33,5.33,0,0,1-6,4.53Z" transform="translate(-0.01 0)"/><path class="cls-1" d="M272.69,175.32a4.15,4.15,0,1,0,3.53,4.7,4.15,4.15,0,0,0-3.53-4.7Zm-.93,6.52a2.37,2.37,0,1,1,2.69-2A2.37,2.37,0,0,1,271.76,181.84Z" transform="translate(-0.01 0)"/><path class="cls-1" d="M156.69,232.68a3.2,3.2,0,0,1-3.2-3.2h0v-66a3.2,3.2,0,0,1,1.6-2.77l11.44-6.6a3.2,3.2,0,0,1,4.37,1.17,3.26,3.26,0,0,1,.43,1.61v66a3.22,3.22,0,0,1-1.6,2.78l-11.44,6.59A3.19,3.19,0,0,1,156.69,232.68Zm3.2-64.1V221.4a1.46,1.46,0,0,0,1.48,1.46,1.41,1.41,0,0,0,.72-.19h0a5.68,5.68,0,0,0,2.83-4.91V164.94a1.46,1.46,0,0,0-1.46-1.46,1.54,1.54,0,0,0-.73.2h0A5.65,5.65,0,0,0,159.89,168.58Z" transform="translate(-0.01 0)"/><path class="cls-1" d="M179.61,219.51a3.2,3.2,0,0,1-3.2-3.2v-66a3.2,3.2,0,0,1,1.6-2.77l11.43-6.61a3.21,3.21,0,0,1,4.81,2.78v66a3.22,3.22,0,0,1-1.6,2.78l-11.44,6.6A3.11,3.11,0,0,1,179.61,219.51Zm3.2-64.1v52.81a1.45,1.45,0,0,0,1.45,1.47,1.53,1.53,0,0,0,.75-.2h0a5.66,5.66,0,0,0,2.83-4.9V151.74a1.47,1.47,0,0,0-1.5-1.44,1.44,1.44,0,0,0-.73.21h0a5.67,5.67,0,0,0-2.85,4.87Z" transform="translate(-0.01 0)"/><path class="cls-1" d="M202.43,206.28a3.2,3.2,0,0,1-3.2-3.2v-66a3.2,3.2,0,0,1,1.6-2.77l11.43-6.61a3.21,3.21,0,0,1,4.81,2.78v66a3.25,3.25,0,0,1-1.61,2.78L204,205.86A3.11,3.11,0,0,1,202.43,206.28Zm3.2-64.1V195a1.45,1.45,0,0,0,1.45,1.47,1.53,1.53,0,0,0,.75-.2h0a5.66,5.66,0,0,0,2.83-4.9V138.51a1.46,1.46,0,0,0-1.48-1.46,1.41,1.41,0,0,0-.72.19h0a5.67,5.67,0,0,0-2.85,4.94Z" transform="translate(-0.01 0)"/><path class="cls-1" d="M139.36,136.28a3.22,3.22,0,0,1-1.6-.43l-11.44-6.61a3.2,3.2,0,0,1-1.6-2.77v-16.6H93.61a3.22,3.22,0,0,1-1.6-.43l-11.4-6.6a3.21,3.21,0,0,1,0-5.55L92,90.7a3.2,3.2,0,0,1,1.6-.43h31.1V73.66a3.2,3.2,0,0,1,1.6-2.77l11.44-6.6a3.16,3.16,0,0,1,3.2,0l11.44,6.6a3.2,3.2,0,0,1,1.6,2.77V90.27h31.1a3.2,3.2,0,0,1,1.6.43l11.43,6.59a3.21,3.21,0,0,1,0,5.55l-11.43,6.6a3.22,3.22,0,0,1-1.6.43H154v16.64a3.2,3.2,0,0,1-1.6,2.77L141,135.89A3.16,3.16,0,0,1,139.36,136.28Zm-8.23-11.66,8.23,4.76,8.23-4.76v-18a3.2,3.2,0,0,1,3.2-3.2h32.54A3.39,3.39,0,0,0,185,103h0a3.4,3.4,0,0,0,1.23-4.66A3.45,3.45,0,0,0,185,97.12h0a3.48,3.48,0,0,0-1.7-.45H150.79a3.2,3.2,0,0,1-3.18-3.16v-18l-8.23-4.75-8.25,4.75v18a3.2,3.2,0,0,1-3.2,3.2H95.39a3.48,3.48,0,0,0-1.7.45h0a3.4,3.4,0,0,0,0,5.89h0a3.39,3.39,0,0,0,1.7.46h32.54a3.2,3.2,0,0,1,3.2,3.2h0Z" transform="translate(-0.01 0)"/><path class="cls-1" d="M122.26,232.68a3.22,3.22,0,0,1-1.6-.43l-11.43-6.59a3.18,3.18,0,0,1-1.18-1.18l-15.55-27-14.38,8.3a3.21,3.21,0,0,1-3.2,0l-11.43-6.6a3.22,3.22,0,0,1-1.6-2.78V183.26a3.2,3.2,0,0,1,1.6-2.77l14.38-8.29L62.32,145.26a3.22,3.22,0,0,1-.43-1.6V130.51a3.2,3.2,0,0,1,4.8-2.78l11.43,6.61a3.15,3.15,0,0,1,1.18,1.17l15.55,26.93,14.38-8.3a3.21,3.21,0,0,1,3.2,0l11.43,6.6a3.2,3.2,0,0,1,1.6,2.77v13.21a3.2,3.2,0,0,1-1.6,2.77l-11.43,6.61h0l-2.94,1.69L125,214.73a3.22,3.22,0,0,1,.43,1.6v13.18a3.2,3.2,0,0,1-1.6,2.77A3.23,3.23,0,0,1,122.26,232.68ZM114,221h0a3.4,3.4,0,0,0,5.1-3h0a3.39,3.39,0,0,0-.46-1.7l-16.26-28.18a3.22,3.22,0,0,1,1.17-4.38l15.55-9v-9.47l-8.23-4.75-15.55,9a3.19,3.19,0,0,1-4.37-1.16h0l-16.29-28.2A3.35,3.35,0,0,0,73.37,139h0a3.4,3.4,0,0,0-5.1,2.94h0a3.39,3.39,0,0,0,.46,1.7L85,171.77a3.19,3.19,0,0,1-1.15,4.36h0l-15.55,9v9.52l8.23,4.75,15.55-9a3.17,3.17,0,0,1,2.43-.32,3.25,3.25,0,0,1,2,1.49l16.26,28.18A3.41,3.41,0,0,0,114,221Z" transform="translate(-0.01 0)"/><path class="cls-1" d="M130.53,50.38,55.47,93.72a22.48,22.48,0,0,0-11.24,19.47v86.67a17.65,17.65,0,0,0,8.83,15.3l75.06,43.35a22.53,22.53,0,0,0,22.49,0l75.06-43.34a17.65,17.65,0,0,0,8.83-15.3V113.19a22.48,22.48,0,0,0-11.24-19.47L148.2,50.38A17.7,17.7,0,0,0,130.53,50.38Zm86.91,55.45-72.21,41.68a11.73,11.73,0,0,1-11.74,0L61.28,105.82a4,4,0,0,1,0-7l69.25-40a17.68,17.68,0,0,1,17.66,0l69.25,40a3.73,3.73,0,0,1,2.66,4.74,3.08,3.08,0,0,1-2.66,2.27ZM57.61,112.17l72.21,41.69A11.76,11.76,0,0,1,135.69,164v83.38a4,4,0,0,1-3.91,4.09,4.1,4.1,0,0,1-2.16-.58l-69.25-40a17.66,17.66,0,0,1-8.84-15.3v-80a4,4,0,0,1,6.08-3.45ZM143,247.41V164a11.76,11.76,0,0,1,5.87-10.17l72.21-41.69a4.05,4.05,0,0,1,6.08,3.51v80a17.66,17.66,0,0,1-8.84,15.3l-69.25,40a4,4,0,0,1-6.06-3.57Z" transform="translate(-0.01 0)"/><path class="cls-1" d="M129.79,277.39a1.92,1.92,0,0,0,.35-1.87c-.15-.42-1.44-3.26-1.75-3.75a10.66,10.66,0,0,0-9.14-4.78c-3.91,0-7.51,1.85-10.49,4.25-1.37,1.1-3.23,2.5-4.08,4.08-1.06,2,.47,3.46,2,4.56a17.36,17.36,0,0,0,11.85,3.27A17.74,17.74,0,0,0,129.79,277.39Z" transform="translate(-0.01 0)"/><path class="cls-1" d="M135.87,278.92c-4.37.91-7.56,4.32-9.21,8.34-1.92,4.67-1.59,10-.23,14.76a36.81,36.81,0,0,0,2.91,7.23c.54,1,1.21,1.67,2.4,1.16a16.21,16.21,0,0,0,3.36-2.14,22.64,22.64,0,0,0,8-12.57,24.57,24.57,0,0,0-2.13-17C140.7,278.15,136.14,278.87,135.87,278.92Z" transform="translate(-0.01 0)"/><path class="cls-1" d="M148.31,265.51c-1,.15-2.33,5.31-2.42,5.8a13.33,13.33,0,0,0,4.53,12.3c4.15,3.72,9.87,4.91,15.29,5,1.41,0,2.81,0,4.21-.13s3.14,0,4.37-.64c2.27-1.13,1.13-4.74.6-6.58a21.92,21.92,0,0,0-8.38-11.64A25.49,25.49,0,0,0,148.31,265.51Z" transform="translate(-0.01 0)"/><path class="cls-1" d="M250.54,100.31a1.92,1.92,0,0,0-1.79.63c-.29.34-2.1,2.88-2.37,3.39a10.71,10.71,0,0,0,.43,10.31c1.93,3.4,5.36,5.57,8.92,7,1.65.64,3.79,1.56,5.57,1.5,2.27-.08,2.77-2.14,3-4a17.29,17.29,0,0,0-3.09-11.89A17.64,17.64,0,0,0,250.54,100.31Z" transform="translate(-0.01 0)"/><path class="cls-1" d="M248.84,94.28c3,3.33,7.51,4.39,11.82,3.81,5-.68,9.44-3.62,12.89-7.19a37.08,37.08,0,0,0,4.82-6.13c.61-1,.84-1.89-.2-2.66a16.76,16.76,0,0,0-3.54-1.84,22.65,22.65,0,0,0-14.89-.66A24.55,24.55,0,0,0,246.08,90C245.75,90.51,248.61,94.07,248.84,94.28Z" transform="translate(-0.01 0)"/><path class="cls-1" d="M231,90.23c.65.82,5.77-.64,6.24-.81a13.3,13.3,0,0,0,8.41-10.07c1.14-5.45-.67-11-3.32-15.74-.68-1.22-1.43-2.41-2.22-3.57s-1.59-2.71-2.74-3.47c-2.12-1.4-4.66,1.39-6,2.77a21.8,21.8,0,0,0-5.89,13.08A25.44,25.44,0,0,0,231,90.23Z" transform="translate(-0.01 0)"/><path class="cls-1" d="M23,110A21.78,21.78,0,0,1,12,107.09a1.37,1.37,0,0,1,.39-2.53A27.38,27.38,0,0,0,29.29,92.63c6.06-9.8,3.3-20,2.69-22a1.37,1.37,0,0,1,.45-1.48A1.39,1.39,0,0,1,34,69a22,22,0,0,1-11,41Zm-3.6-5a1.07,1.07,0,0,0,.26,2A19.22,19.22,0,0,0,37.7,75.74a1.07,1.07,0,0,0-1.87.79A28.79,28.79,0,0,1,19.36,105Z" transform="translate(-0.01 0)"/><circle class="cls-1" cx="7.24" cy="78.98" r="4.57"/><path class="cls-1" d="M30.2,72.16A23.5,23.5,0,0,1,15,101.69c-.71.23-1.42.42-2.15.58,0,0,8.56-10.17,10.76-14S30.2,72.16,30.2,72.16Z" transform="translate(-0.01 0)"/><path class="cls-1" d="M390.47,137.51v15.35c-4.9-11.87-14.79-12.26-19.7-23.15l4.55-10.2C379.31,127.16,385.11,132,390.47,137.51Z" transform="translate(-0.01 0)"/><path class="cls-1" d="M710.9,161.74a56.68,56.68,0,0,1-.56,5.67c-7-5-24-5.85-31.85-1.55-.19-1.41-.31-2.85-.37-4.27a13.13,13.13,0,0,0-.06-1.53C688.25,158.34,700.82,158.57,710.9,161.74Z" transform="translate(-0.01 0)"/><path class="cls-1" d="M393.77,108.37a44.34,44.34,0,0,0,10.61-.4c0-1.23.08-2.47.13-3.7a61.64,61.64,0,0,1,1.6-11.39H392a60.8,60.8,0,0,1,1.6,11.39C393.69,105.64,393.74,107,393.77,108.37Zm10.48,41.83V124.37a67.86,67.86,0,0,1-8.67.56h-1.7v25.3c0,3.88-.08,7.74-.26,11.62a60.9,60.9,0,0,1-1.6,11.4h14.09a60.9,60.9,0,0,1-1.6-11.4c-.17-3.91-.26-7.77-.26-11.65Z" transform="translate(-0.01 0)"/><path class="cls-1" d="M714,133.35h1A5.57,5.57,0,0,1,714,133.35Zm11.14,28.47c-.16-3.88-.26-7.74-.26-11.62V140.14a16.94,16.94,0,0,0-1.85.4,29.71,29.71,0,0,1-8.5.94v8.72c0,3.88-.1,7.74-.26,11.62a59.33,59.33,0,0,1-1.62,11.4H726.8A59.33,59.33,0,0,1,725.18,161.82Zm14.16-68.94c-.68,1.58-1.49,3.25-2.38,5s-2.05,3.72-3.42,6-3.15,5-5.29,8.24l-8.19,12.23L711.45,112q-4.77-7.14-7.42-11.4A57.37,57.37,0,0,1,700,92.94H684.39a100.44,100.44,0,0,1,7.16,8q3.32,4.14,6.31,8.59l10,14.84a29.68,29.68,0,0,0,11.9.74,60.83,60.83,0,0,1,12.2-.91l9.94-14.67c2.07-2.89,4.2-5.73,6.36-8.49A102.94,102.94,0,0,1,755.37,93Z" transform="translate(-0.01 0)"/><path class="cls-1" d="M594.66,130.91a74.64,74.64,0,0,1-11.28,5.36,38.4,38.4,0,0,1-1.94,9.42,32.58,32.58,0,0,1-6,10.68,29.35,29.35,0,0,1-9.43,7.3,27.32,27.32,0,0,1-12.25,2.7,26.87,26.87,0,0,1-12.18-2.7,28.3,28.3,0,0,1-9.28-7.3,33.7,33.7,0,0,1-5.91-10.68,3.38,3.38,0,0,1-.13-.42,47.22,47.22,0,0,0-9.94,4.54,40.37,40.37,0,0,0,8.29,12.83,38.19,38.19,0,0,0,12.87,8.87,43.87,43.87,0,0,0,32.76,0,38.52,38.52,0,0,0,13-8.87,40.19,40.19,0,0,0,8.5-13.26,44.16,44.16,0,0,0,3-16.39C594.71,132.3,594.69,131.6,594.66,130.91ZM526.38,120.3a34.74,34.74,0,0,1,5.91-10.64,27.08,27.08,0,0,1,21.46-10A27.88,27.88,0,0,1,566,102.36a28.75,28.75,0,0,1,9.43,7.26,32.81,32.81,0,0,1,6,10.63c.1.27.18.55.26.82a46.34,46.34,0,0,0,9.82-5,39.48,39.48,0,0,0-8.32-12.81,38.78,38.78,0,0,0-13-8.75,44.43,44.43,0,0,0-32.76,0,39,39,0,0,0-12.82,8.85,40,40,0,0,0-8.45,13.21,44.11,44.11,0,0,0-3,16.38v2a70.79,70.79,0,0,1,11.25-4.93A37.78,37.78,0,0,1,526.38,120.3Z" transform="translate(-0.01 0)"/><path class="cls-1" d="M604,115.88v2.57c-11.34,10.62-28.4,18.18-44.56,18.18-28.38,0-46.78,6.82-54.43,17.42V145c10.75-8.89,26.24-14.88,43.66-14.85,32,0,49-10.53,55.23-22.1Q604,112,604,115.88Z" transform="translate(-0.01 0)"/><path class="cls-1" d="M420.12,115.09a45.85,45.85,0,0,1-11.2,4.19,59.58,59.58,0,0,1-8.07,1.34c-.78.08-1.54.13-2.3.18a58.89,58.89,0,0,1-8.08-.08c-5.75-.46-10.76-1.75-14-3.62l3.56-7.94a30,30,0,0,0,10.45,3,49.83,49.83,0,0,0,8.1.36c.77,0,1.56-.08,2.34-.15a39.67,39.67,0,0,0,8.09-1.44c4.57-1.27,8.5-3.39,10.89-6.43C420,108.05,420.1,111.6,420.12,115.09Z" transform="translate(-0.01 0)"/><path class="cls-1" d="M765.17,149.68v24c-7.09-27.13-25.46-41.86-43.77-37-13.29,3.52-31.15-4.85-43.54-16.73v-4.13c0-2.33,0-4.67.1-7,9,14,28.4,22.49,41.89,20.19C742.83,125.11,756.43,134.27,765.17,149.68Z" transform="translate(-0.01 0)"/><path class="cls-1" d="M389.32,217V180.4h3.59V217Zm22.82,0-17.33-18.77,16.06-17.82h4.55L398,196.76,416.9,217Z" transform="translate(-0.01 0)"/><path class="cls-1" d="M421.07,198.69a19.3,19.3,0,0,1,1.45-7.5,18.34,18.34,0,0,1,10.2-10.06,20.67,20.67,0,0,1,15.16,0,18.34,18.34,0,0,1,10.2,10.06,20.15,20.15,0,0,1,0,15,18.46,18.46,0,0,1-10.2,10.09,20.67,20.67,0,0,1-15.16,0,18.46,18.46,0,0,1-10.2-10.09A19.3,19.3,0,0,1,421.07,198.69Zm4,0A21.58,21.58,0,0,0,427,208a14.63,14.63,0,0,0,5.33,6.22,15.39,15.39,0,0,0,16,0,14.74,14.74,0,0,0,5.33-6.24,23.71,23.71,0,0,0,0-18.59,15,15,0,0,0-5.33-6.24,15.31,15.31,0,0,0-15.93,0,15,15,0,0,0-5.34,6.22,21.31,21.31,0,0,0-1.94,9.3Z" transform="translate(-0.01 0)"/><path class="cls-1" d="M469.83,217l1.32-37.33h.63l26.58,31.79h.31l-1.16-31h3.59l-1.32,37.32h-.63l-26.54-31.78h-.32L473.45,217Z" transform="translate(-0.01 0)"/><path class="cls-1" d="M514.05,217V180.4h15.56V183l-8.77-1.2a30.66,30.66,0,0,0-3.17-.32V197.8q.84,0,3.27-.15l8.09-.53v2.39l-8.09-.52c-1.62-.11-2.71-.16-3.27-.16V217Z" transform="translate(-0.01 0)"/><path class="cls-1" d="M539.88,217V180.4H556V183l-9.24-1.2a32.8,32.8,0,0,0-3.28-.32v15.95c.46,0,1.55-.06,3.28-.16l8.66-.52v2.4l-8.66-.52c-1.73-.11-2.82-.16-3.28-.16v17.51a28.62,28.62,0,0,0,3.33-.31l9.35-1.2V217Z" transform="translate(-0.01 0)"/><path class="cls-1" d="M567.25,180.4h7.07c3.74,0,6.63.77,8.69,2.32a7.66,7.66,0,0,1,3.09,6.51,7.77,7.77,0,0,1-1.92,5.39,10,10,0,0,1-5.57,2.89v.31a9.82,9.82,0,0,1,5.71,3.25,16.73,16.73,0,0,1,3.33,6.32,31.14,31.14,0,0,0,2,5.36,7.4,7.4,0,0,0,2.16,2.74,8.17,8.17,0,0,0,2.83,1.21V217h-2.17a7.81,7.81,0,0,1-3.83-.84,6.64,6.64,0,0,1-2.56-2.82,27.32,27.32,0,0,1-2-5.49q-1.53-5.38-4.06-7.63a9,9,0,0,0-6.18-2.25h-.32V197h.32q8.5,0,8.5-7.74t-8-7.63h-3.48V217h-3.59Z" transform="translate(-0.01 0)"/><path class="cls-1" d="M601.16,217V180.4h16.11V183l-9.24-1.2a32.8,32.8,0,0,0-3.28-.32v15.95c.46,0,1.55-.06,3.28-.16l8.66-.52v2.4l-8.66-.52c-1.73-.11-2.82-.16-3.28-.16v17.51a28.62,28.62,0,0,0,3.33-.31l9.35-1.2V217Z" transform="translate(-0.01 0)"/><path class="cls-1" d="M627.73,217l1.32-37.33h.64l26.57,31.79h.35l-1.16-31H659l-1.32,37.32h-.64l-26.57-31.78h-.32L631.36,217Z" transform="translate(-0.01 0)"/><path class="cls-1" d="M701.43,212.51l-.32,3.19a19.59,19.59,0,0,1-3.59,1.1,38.55,38.55,0,0,1-4.28.7,35.55,35.55,0,0,1-3.86.24,21.21,21.21,0,0,1-7.92-1.44,19.71,19.71,0,0,1-6.37-4,18.28,18.28,0,0,1-4.25-6,18.74,18.74,0,0,1,4.25-21.15,19.71,19.71,0,0,1,6.37-4,21.21,21.21,0,0,1,7.92-1.44,32,32,0,0,1,3.91.27c1.45.17,2.86.41,4.23.7a22.09,22.09,0,0,1,3.49,1l-.27,2.93h-.32a13,13,0,0,0-4.91-2.72,19.91,19.91,0,0,0-6.13-.94,15.71,15.71,0,0,0-8.37,2.22,15.2,15.2,0,0,0-5.65,6.22,22.42,22.42,0,0,0,0,18.69,15.25,15.25,0,0,0,5.62,6.19,15.62,15.62,0,0,0,8.4,2.23,19.06,19.06,0,0,0,6.69-1.15,16.4,16.4,0,0,0,5-2.83Z" transform="translate(-0.01 0)"/><path class="cls-1" d="M712,217V180.4h3.62V217Z" transform="translate(-0.01 0)"/><path class="cls-1" d="M723.83,217,738,180.4h3.27L755.52,217h-3.85l-6.55-17.15h-12L727.67,217Zm14.58-33.87-4.91,15.47h11.11l-5.92-15.47Z" transform="translate(-0.01 0)"/><path class="cls-1" d="M435.67,92.87l26.64,62.41,27-62.41h13a60.1,60.1,0,0,0-1.61,11.4c-.17,3.88-.25,7.75-.26,11.62V150.2q0,5.82.26,11.62a60.1,60.1,0,0,0,1.61,11.4h-14.1a60.1,60.1,0,0,0,1.61-11.4c.17-3.87.25-7.75.25-11.62V112.88l-25.81,60.34h-5l-25.81-60.34V150.2c0,3.88.08,7.75.26,11.62a59.3,59.3,0,0,0,1.6,11.4H421.67a60.1,60.1,0,0,0,1.61-11.4c.17-3.87.26-7.75.26-11.62V115.89c0-3.87-.09-7.75-.26-11.62a60.1,60.1,0,0,0-1.61-11.4Z" transform="translate(-0.01 0)"/><path class="cls-1" d="M620.21,92.87l43.13,66.87v-44q0-5.8-.25-11.61a60.1,60.1,0,0,0-1.61-11.4h13.58a60.1,60.1,0,0,0-1.61,11.4q-.26,5.81-.26,11.61v34.32q0,5.81.26,11.66a60.73,60.73,0,0,0,1.61,11.46H660.13l-42.82-66.31V150.2q0,5.82.26,11.62a60.1,60.1,0,0,0,1.61,11.4H605.61a60.9,60.9,0,0,0,1.6-11.4c.17-3.87.25-7.75.26-11.62V115.89c0-3.87-.09-7.75-.26-11.62a60.9,60.9,0,0,0-1.6-11.4Z" transform="translate(-0.01 0)"/><path class="cls-1" d="M376.34,106.05l-7.63,17a28.18,28.18,0,0,0-3.62-8.81,23.29,23.29,0,0,0-7.11-7.31A19.23,19.23,0,0,0,347.13,104q-8.29,0-13.62,5t-5.33,13.37A15.83,15.83,0,0,0,331.73,133a34.12,34.12,0,0,0,9.21,7.39l12,6.84A90.21,90.21,0,0,1,365.7,156a41.22,41.22,0,0,1,9.87,11.8,33.32,33.32,0,0,1,3.81,16.44,36.71,36.71,0,0,1-4,17.45,29,29,0,0,1-11.48,11.85q-7.42,4.25-17.82,4.25a41.82,41.82,0,0,1-14.21-2.2,40.14,40.14,0,0,1-10.2-5.27,38,38,0,0,1-6.51-5.9A44.56,44.56,0,0,1,312,200.3l8.81-17.14h.4a45.23,45.23,0,0,0,4.93,10.22,29.06,29.06,0,0,0,8.16,8.41,20.28,20.28,0,0,0,11.78,3.39,18.26,18.26,0,0,0,14-5.9q5.46-5.91,5.46-15,0-9.28-5.26-14.87a55.66,55.66,0,0,0-12.9-10q-5.52-3.32-11.25-6.53a66.29,66.29,0,0,1-10.59-7.39,33.67,33.67,0,0,1-7.89-9.83A29.84,29.84,0,0,1,314.49,122,28.43,28.43,0,0,1,330,95.47a36.28,36.28,0,0,1,17.37-4,37.32,37.32,0,0,1,12.83,2A31.4,31.4,0,0,1,369,98.19a32.81,32.81,0,0,1,5.2,5C375.35,104.66,376.07,105.63,376.34,106.05Z" transform="translate(-0.01 0)"/><path class="cls-1" d="M782.78,93a122.32,122.32,0,0,0-1.87,17.6q-.3,9-.3,17.92v53q0,9,.3,17.92a122.32,122.32,0,0,0,1.87,17.6H766.42a120.91,120.91,0,0,0,1.86-17.6q.3-9,.3-17.92v-53q0-9-.3-17.92A120.91,120.91,0,0,0,766.42,93Z" transform="translate(-0.01 0)"/></svg>