<svg id="Layer_1" data-name="Layer 1" xmlns="http://www.w3.org/2000/svg" viewBox="0 0 782.78 310.59"><defs><style>.cls-1{fill:#46b06b;}.cls-2{fill:#643912;}.cls-3{fill:#ea7217;}.cls-4{fill:#45b06a;}</style></defs><path class="cls-1" d="M576.24,379.3c8,23.67,31.7,23.26,31.61,58.88L596.74,437c.09-35.63-20.14-25.17-24.64-48.46Z" transform="translate(-203.39 -265.49)"/><path class="cls-1" d="M863.51,438.71c-8.37-14.47,54.45-23,66.7,0H916.69c2-12.8-42.59-14.22-38.57,0Z" transform="translate(-203.39 -265.49)"/><path class="cls-2" d="M609.51,358.36a59.65,59.65,0,0,0-1.61,11.4q-.25,5.82-.26,11.62v34.31q0,5.82.26,11.62a59.65,59.65,0,0,0,1.61,11.4h-14.1a60.46,60.46,0,0,0,1.61-11.4q.26-5.81.26-11.62V381.38q0-5.81-.26-11.62a60.46,60.46,0,0,0-1.61-11.4Z" transform="translate(-203.39 -265.49)"/><path class="cls-2" d="M918,415.69V399.62L901.26,375q-3-4.45-6.32-8.61a99.17,99.17,0,0,0-7.16-8h15.55a57.41,57.41,0,0,0,4.1,7.67q2.64,4.26,7.41,11.41l8.61,12.33,8.19-12.23q3.21-4.87,5.29-8.24c1.38-2.25,2.52-4.23,3.42-6s1.69-3.39,2.38-5H958.8a102.24,102.24,0,0,0-7.1,8.09q-3.27,4.14-6.38,8.5l-17,25.09v15.65q0,5.82.26,11.62a59.65,59.65,0,0,0,1.61,11.4h-14.1a60.44,60.44,0,0,0,1.6-11.4Q917.95,421.51,918,415.69Z" transform="translate(-203.39 -265.49)"/><path class="cls-2" d="M757.25,440.16A41.52,41.52,0,0,1,740.87,437,38.28,38.28,0,0,1,728,428.14a40.8,40.8,0,0,1-8.45-13.27,46.1,46.1,0,0,1,0-32.77A40.27,40.27,0,0,1,728,368.88a38.74,38.74,0,0,1,12.91-8.81,41.52,41.52,0,0,1,16.38-3.16A42.23,42.23,0,0,1,773.63,360a38.38,38.38,0,0,1,13,8.76,39.81,39.81,0,0,1,8.5,13.22,46.37,46.37,0,0,1,0,32.87,40.44,40.44,0,0,1-8.5,13.27,38.79,38.79,0,0,1-13,8.86A41.52,41.52,0,0,1,757.25,440.16Zm-.1-8.29a27.35,27.35,0,0,0,12.23-2.7,29.1,29.1,0,0,0,9.44-7.31,32.35,32.35,0,0,0,6-10.68,40.15,40.15,0,0,0,0-25.45,32.62,32.62,0,0,0-6-10.63,28.65,28.65,0,0,0-9.44-7.25,27.73,27.73,0,0,0-12.23-2.65,27,27,0,0,0-21.46,10,34.24,34.24,0,0,0-5.91,10.62,38.23,38.23,0,0,0-2.08,12.7,38.74,38.74,0,0,0,2.08,12.7,33.23,33.23,0,0,0,5.91,10.68,28,28,0,0,0,9.27,7.31A27.05,27.05,0,0,0,757.15,431.87Z" transform="translate(-203.39 -265.49)"/><path class="cls-1" d="M705.36,438.71c-5.77-20.79,14.32-36.59,57.51-36.59,27.59,0,57.76-22,57.76-43.76H809.5c3.77,15.3-11.25,37.23-57.43,37.23-32.87-.07-59,21.36-59,43.12Z" transform="translate(-203.39 -265.49)"/><path class="cls-1" d="M576.24,379.3c5.79,11,59,12.68,62.82-20.94h-14c6.78,22.94-38.59,23.65-45.33,13.18Z" transform="translate(-203.39 -265.49)"/><path class="cls-1" d="M866.63,358.36c0,21.53,35.61,49.75,58.16,43.77,26.51-7,53.2,27.08,45.48,80.35h15.9c-7.43-44.53-13.62-96.33-62.93-88-18.08,3.06-46.66-13.23-46.91-36.14C876.33,358.36,869.05,360.49,866.63,358.36Z" transform="translate(-203.39 -265.49)"/><path class="cls-3" d="M592.71,482.48V445.89h3.59v36.59Zm22.82,0L598.2,463.71l16.06-17.82h4.55l-17.38,16.36,18.86,20.23Z" transform="translate(-203.39 -265.49)"/><path class="cls-3" d="M624.46,464.18a19.24,19.24,0,0,1,1.45-7.5,18.42,18.42,0,0,1,4.07-6.06,18.62,18.62,0,0,1,6.13-4,20.67,20.67,0,0,1,15.16,0,18.62,18.62,0,0,1,6.13,4,18.42,18.42,0,0,1,4.07,6.06,20.12,20.12,0,0,1,0,15,18.43,18.43,0,0,1-10.2,10.09,20.67,20.67,0,0,1-15.16,0,18.43,18.43,0,0,1-10.2-10.09A19.17,19.17,0,0,1,624.46,464.18Zm4,0a21.44,21.44,0,0,0,1.9,9.33,14.66,14.66,0,0,0,5.33,6.22,15.39,15.39,0,0,0,16,0,14.72,14.72,0,0,0,5.33-6.24,23.69,23.69,0,0,0,0-18.59,15,15,0,0,0-5.33-6.24,15.31,15.31,0,0,0-15.93,0,15.09,15.09,0,0,0-5.34,6.22A21.36,21.36,0,0,0,628.48,464.18Z" transform="translate(-203.39 -265.49)"/><path class="cls-3" d="M673.22,482.48l1.32-37.33h.63l26.58,31.79h.31l-1.16-31.05h3.59l-1.32,37.32h-.63L676,451.43h-.32l1.16,31.05Z" transform="translate(-203.39 -265.49)"/><path class="cls-3" d="M717.44,482.48V445.89H733v2.56l-8.77-1.2a30.92,30.92,0,0,0-3.17-.32v16.36q.84,0,3.27-.15l8.09-.53V465l-8.09-.52c-1.62-.11-2.71-.16-3.27-.16v18.14Z" transform="translate(-203.39 -265.49)"/><path class="cls-3" d="M743.27,482.48V445.89h16.11v2.56l-9.24-1.2a31.85,31.85,0,0,0-3.28-.32v15.95c.46,0,1.55-.06,3.28-.16l8.66-.52v2.4l-8.66-.52c-1.73-.11-2.82-.16-3.28-.16v17.51a29.19,29.19,0,0,0,3.33-.31l9.35-1.2v2.56Z" transform="translate(-203.39 -265.49)"/><path class="cls-3" d="M770.64,445.89h7.07c3.74,0,6.63.77,8.69,2.32a7.68,7.68,0,0,1,3.09,6.51,7.79,7.79,0,0,1-1.92,5.39A9.94,9.94,0,0,1,782,463v.31a9.83,9.83,0,0,1,5.71,3.25,16.65,16.65,0,0,1,3.33,6.32,31.73,31.73,0,0,0,2,5.36,7.33,7.33,0,0,0,2.16,2.74,8,8,0,0,0,2.83,1.21v.31h-2.17a7.81,7.81,0,0,1-3.83-.84,6.71,6.71,0,0,1-2.56-2.82,27.67,27.67,0,0,1-2-5.49q-1.53-5.38-4.06-7.63a9,9,0,0,0-6.18-2.25h-.32v-.94h.32q8.5,0,8.5-7.74t-8-7.63h-3.48v35.34h-3.59Z" transform="translate(-203.39 -265.49)"/><path class="cls-3" d="M804.55,482.48V445.89h16.11v2.56l-9.24-1.2a31.85,31.85,0,0,0-3.28-.32v15.95c.46,0,1.55-.06,3.28-.16l8.66-.52v2.4l-8.66-.52c-1.73-.11-2.82-.16-3.28-.16v17.51a29.19,29.19,0,0,0,3.33-.31l9.35-1.2v2.56Z" transform="translate(-203.39 -265.49)"/><path class="cls-3" d="M831.12,482.48l1.32-37.33h.64l26.57,31.79H860l-1.16-31.05h3.59l-1.32,37.32h-.64l-26.57-31.78h-.32l1.17,31.05Z" transform="translate(-203.39 -265.49)"/><path class="cls-3" d="M904.82,478l-.32,3.19a20.26,20.26,0,0,1-3.59,1.1,38.55,38.55,0,0,1-4.28.7,35.39,35.39,0,0,1-3.86.24,21.36,21.36,0,0,1-7.92-1.44,19.83,19.83,0,0,1-6.37-4,18.38,18.38,0,0,1-4.25-6,18.74,18.74,0,0,1,4.25-21.15,19.83,19.83,0,0,1,6.37-4,21.36,21.36,0,0,1,7.92-1.44,31.75,31.75,0,0,1,3.91.27c1.45.17,2.86.41,4.23.7a22.54,22.54,0,0,1,3.49,1l-.27,2.93h-.32a13,13,0,0,0-4.91-2.72,20,20,0,0,0-6.13-.94,15.67,15.67,0,0,0-8.37,2.22,15.21,15.21,0,0,0-5.65,6.22,22.42,22.42,0,0,0,0,18.69,15.26,15.26,0,0,0,5.62,6.19,15.59,15.59,0,0,0,8.4,2.23,19.18,19.18,0,0,0,6.69-1.15,16.5,16.5,0,0,0,5-2.83Z" transform="translate(-203.39 -265.49)"/><path class="cls-3" d="M915.38,482.48V445.89H919v36.59Z" transform="translate(-203.39 -265.49)"/><path class="cls-3" d="M927.22,482.48l14.21-36.59h3.27l14.21,36.59h-3.85l-6.55-17.15h-12l-5.45,17.15Zm14.58-33.87-4.91,15.47H948l-5.92-15.47Z" transform="translate(-203.39 -265.49)"/><path class="cls-2" d="M639.06,358.36l26.64,62.41,27-62.41h13a59.65,59.65,0,0,0-1.61,11.4q-.25,5.82-.26,11.62v34.31q0,5.82.26,11.62a59.65,59.65,0,0,0,1.61,11.4h-14.1a60.46,60.46,0,0,0,1.61-11.4q.25-5.81.25-11.62V378.37l-25.81,60.34h-5l-25.81-60.34v37.32c0,3.88.08,7.75.26,11.62a59.64,59.64,0,0,0,1.6,11.4H625.06a60.46,60.46,0,0,0,1.61-11.4q.26-5.81.26-11.62V381.38q0-5.81-.26-11.62a60.46,60.46,0,0,0-1.61-11.4Z" transform="translate(-203.39 -265.49)"/><path class="cls-2" d="M823.6,358.36l43.13,66.87v-44q0-5.81-.25-11.61a60.46,60.46,0,0,0-1.61-11.4h13.58a60.46,60.46,0,0,0-1.61,11.4q-.26,5.8-.26,11.61v34.32q0,5.81.26,11.66a60.62,60.62,0,0,0,1.61,11.46H863.52L820.7,372.36v43.33q0,5.82.26,11.62a59.65,59.65,0,0,0,1.61,11.4H809a60.44,60.44,0,0,0,1.6-11.4q.25-5.81.26-11.62V381.38q0-5.81-.26-11.62a60.44,60.44,0,0,0-1.6-11.4Z" transform="translate(-203.39 -265.49)"/><path class="cls-2" d="M579.73,371.54l-7.63,17a28.21,28.21,0,0,0-3.62-8.81,23.28,23.28,0,0,0-7.11-7.31,19.28,19.28,0,0,0-10.85-2.91q-8.29,0-13.62,5t-5.33,13.37a15.84,15.84,0,0,0,3.55,10.62,34.18,34.18,0,0,0,9.21,7.39l12,6.84a90,90,0,0,1,12.76,8.73,41.08,41.08,0,0,1,9.87,11.8,33.3,33.3,0,0,1,3.81,16.44,36.68,36.68,0,0,1-4,17.45A29,29,0,0,1,567.29,479q-7.42,4.25-17.82,4.25a41.71,41.71,0,0,1-14.21-2.2,40.24,40.24,0,0,1-10.2-5.27,38,38,0,0,1-6.51-5.9,45,45,0,0,1-3.16-4.09l8.81-17.14h.4a45.18,45.18,0,0,0,4.93,10.22,29.06,29.06,0,0,0,8.16,8.41,20.28,20.28,0,0,0,11.78,3.39,18.25,18.25,0,0,0,14-5.9q5.46-5.91,5.46-15,0-9.29-5.26-14.87a55.94,55.94,0,0,0-12.9-10q-5.52-3.32-11.25-6.53a66.11,66.11,0,0,1-10.59-7.39,33.67,33.67,0,0,1-7.89-9.83,29.78,29.78,0,0,1-3.16-13.69,28.44,28.44,0,0,1,15.52-26.5,36.32,36.32,0,0,1,17.37-4,37.19,37.19,0,0,1,12.83,2,31.39,31.39,0,0,1,8.75,4.72,32.8,32.8,0,0,1,5.2,5C578.74,370.15,579.46,371.12,579.73,371.54Z" transform="translate(-203.39 -265.49)"/><path class="cls-2" d="M986.17,358.48a121.93,121.93,0,0,0-1.87,17.6q-.3,9-.3,17.92v53q0,9,.3,17.92a121.93,121.93,0,0,0,1.87,17.6H969.81a121.93,121.93,0,0,0,1.86-17.6q.3-9,.3-17.92V394q0-9-.3-17.92a121.93,121.93,0,0,0-1.86-17.6Z" transform="translate(-203.39 -265.49)"/><path class="cls-1" d="M224.09,354.09l-14.25-8.23,1.6-2.78,14.26,8.24a3,3,0,0,1-.52,1.38A4.48,4.48,0,0,1,224.09,354.09Z" transform="translate(-203.39 -265.49)"/><path class="cls-2" d="M480.65,481.51v-4.57l-7.25-2.27a26.52,26.52,0,0,0-1.34-5l5.14-5.58-2.29-4-7.4,1.66a28,28,0,0,0-3.7-3.69l1.67-7.4-4-2.29-5.58,5.14a26.72,26.72,0,0,0-5-1.34l-2.27-7.25h-2.29v13.72a20.59,20.59,0,1,1-17.75,31l-11.88,6.85,1.08,1.86,7.39-1.65a27.3,27.3,0,0,0,3.69,3.68l-1.65,7.4,4,2.29,5.57-5.13a27.49,27.49,0,0,0,5.06,1.34l2.25,7.25h4.57l2.27-7.25a27.5,27.5,0,0,0,5-1.34l5.58,5.13,4-2.29-1.67-7.4a27.37,27.37,0,0,0,3.7-3.68l7.4,1.65,2.29-4-5.14-5.57a26.62,26.62,0,0,0,1.34-5.05Z" transform="translate(-203.39 -265.49)"/><path class="cls-2" d="M446.34,463.22v7.1a9.15,9.15,0,1,1-8,13.65l-5.83,3.37a16,16,0,1,0,13.79-24.12Z" transform="translate(-203.39 -265.49)"/><path class="cls-2" d="M255.44,489.64a20.58,20.58,0,1,1-17.75-31V444.92H235.4l-2.26,7.25a26.82,26.82,0,0,0-5,1.34l-5.57-5.14-4,2.29,1.66,7.4a27.38,27.38,0,0,0-3.69,3.69l-7.4-1.66-2.29,4,5.14,5.58a26.54,26.54,0,0,0-1.35,5l-7.24,2.27v4.57l7.24,2.26a26.64,26.64,0,0,0,1.35,5.05l-5.14,5.57,2.29,4,7.4-1.65a26.74,26.74,0,0,0,3.69,3.68l-1.66,7.4,4,2.29,5.57-5.13a27.6,27.6,0,0,0,5,1.34l2.26,7.25H240l2.27-7.25a27.71,27.71,0,0,0,5-1.34l5.58,5.13,4-2.29-1.67-7.4a27.37,27.37,0,0,0,3.7-3.68l7.4,1.65,1.07-1.85Z" transform="translate(-203.39 -265.49)"/><path class="cls-2" d="M245.65,484a9.15,9.15,0,1,1-8-13.65v-7.1a16,16,0,1,0,13.79,24.13Z" transform="translate(-203.39 -265.49)"/><path class="cls-2" d="M376.32,302.08V297.5l-7.25-2.27a26.72,26.72,0,0,0-1.34-5l5.14-5.58-2.29-4-7.4,1.67a28,28,0,0,0-3.69-3.7l1.66-7.4-4-2.29-5.58,5.15a26,26,0,0,0-5-1.35l-2.27-7.24h-4.57l-2.26,7.24a25.91,25.91,0,0,0-5.05,1.35l-5.57-5.15-4,2.29,1.65,7.4a28,28,0,0,0-3.68,3.7l-7.4-1.67-2.29,4,5.13,5.58a27.5,27.5,0,0,0-1.34,5l-7.25,2.27v4.58l7.25,2.26a27.6,27.6,0,0,0,1.34,5.05L311.17,315l.67,1.15,11.9-6.87a20.59,20.59,0,1,1,36.55,0l11.91,6.87.67-1.15-5.14-5.57a26.82,26.82,0,0,0,1.34-5.05Z" transform="translate(-203.39 -265.49)"/><path class="cls-2" d="M342,283.78a16,16,0,0,0-16,16,15.76,15.76,0,0,0,1.69,7.15l5.88-3.38a9,9,0,0,1-.71-3.53,9.15,9.15,0,1,1,18.29,0,9,9,0,0,1-.71,3.53l5.88,3.38a15.76,15.76,0,0,0,1.69-7.15A16,16,0,0,0,342,283.78Z" transform="translate(-203.39 -265.49)"/><path class="cls-2" d="M406.7,502.27l-34,19.64,1.82,5.62h5.08l2.5-7.75a31.42,31.42,0,0,0,5.59-1.45l6.19,5.5,4.39-2.45-1.84-7.93a30.61,30.61,0,0,0,4.1-4l8.2,1.78,2.53-4.25Z" transform="translate(-203.39 -265.49)"/><path class="cls-2" d="M237.67,394.34l-8.2-1.79-2.54,4.25,5.68,6a28.07,28.07,0,0,0-1.48,5.41l-8,2.43v4.89l8,2.43a27.77,27.77,0,0,0,1.48,5.4l-5.68,6,2.54,4.24,8.2-1.77,0,0V394.32Z" transform="translate(-203.39 -265.49)"/><path class="cls-2" d="M408.64,291.43l.67-1.89-2.66-2a11.06,11.06,0,0,0,.18-2.29l2.95-1.55-.37-2-3.3-.39a13.21,13.21,0,0,0-1-2.08l1.78-2.81-1.31-1.53-3.06,1.31a11.31,11.31,0,0,0-1.89-1.3l.12-3.33-1.89-.67-2,2.66a11.75,11.75,0,0,0-2.28-.18L393,270.45l-2,.37-.4,3.3a12.7,12.7,0,0,0-2.07,1l-2.82-1.78-1.53,1.31,1.31,3.06a11.93,11.93,0,0,0-1.3,1.89l-3.33-.13-.67,1.9,2.66,2a12.59,12.59,0,0,0-.18,2.28l-2.94,1.56.36,2,3.31.4a12.24,12.24,0,0,0,1,2.07l-1.77,2.82L384,296l3.06-1.31a12,12,0,0,0,1.9,1.3l-.13,3.33,1.89.67,2-2.66a12.7,12.7,0,0,0,2.29.18l1.55,2.94,2-.36.39-3.31a12.34,12.34,0,0,0,2.08-1l2.82,1.77,1.52-1.3L404,293.2a11.82,11.82,0,0,0,1.3-1.9ZM391.76,294a9,9,0,1,1,11.54-5.5A9,9,0,0,1,391.76,294Z" transform="translate(-203.39 -265.49)"/><path class="cls-2" d="M397.13,278.82a7,7,0,1,0,4.28,9A7,7,0,0,0,397.13,278.82Zm-3.73,10.51a4,4,0,1,1,5.13-2.44A4,4,0,0,1,393.4,289.33Z" transform="translate(-203.39 -265.49)"/><path class="cls-2" d="M305.09,293l.38-1.1-1.54-1.16a6.54,6.54,0,0,0,.11-1.32l1.7-.9-.21-1.14-1.91-.23a7.33,7.33,0,0,0-.57-1.2l1-1.63-.75-.89-1.77.76a7.1,7.1,0,0,0-1.1-.75l.08-1.93-1.1-.39-1.16,1.55a6.54,6.54,0,0,0-1.32-.11l-.9-1.7-1.14.21-.23,1.91a6.6,6.6,0,0,0-1.2.57l-1.63-1-.89.76.76,1.77a7.52,7.52,0,0,0-.75,1.09L289,286.1l-.39,1.1,1.55,1.16a6.54,6.54,0,0,0-.11,1.32l-1.7.9.21,1.14,1.91.23a6.6,6.6,0,0,0,.57,1.2l-1,1.63.76.89,1.77-.76a7.52,7.52,0,0,0,1.09.75l-.07,1.93,1.1.39,1.16-1.55a6.54,6.54,0,0,0,1.32.11l.9,1.7,1.14-.21.23-1.91a6.6,6.6,0,0,0,1.2-.57l1.63,1,.89-.75-.76-1.77a7.1,7.1,0,0,0,.75-1.1Zm-9.78,1.47a5.23,5.23,0,1,1,6.68-3.19A5.24,5.24,0,0,1,295.31,294.5Z" transform="translate(-203.39 -265.49)"/><path class="cls-2" d="M298.42,285.73a4.07,4.07,0,1,0,2.48,5.2A4.07,4.07,0,0,0,298.42,285.73Zm-2.15,6.08a2.32,2.32,0,1,1,3-1.41A2.32,2.32,0,0,1,296.27,291.81Z" transform="translate(-203.39 -265.49)"/><path class="cls-2" d="M299.68,320.28l3.22-1.69-.4-2.16-3.6-.43a13.81,13.81,0,0,0-1.08-2.26l1.94-3.07L298.34,309,295,310.42a12.29,12.29,0,0,0-2.06-1.41l.14-3.64-2.07-.73-2.18,2.91a13.2,13.2,0,0,0-2.49-.2l-1.7-3.22-2.15.4-.44,3.61a12.26,12.26,0,0,0-2.25,1.08l-3.08-1.94L275,308.7l1.43,3.35a12.45,12.45,0,0,0-1.42,2.05l-3.63-.13-.74,2.07,2.91,2.17a13.18,13.18,0,0,0-.2,2.5l-3.21,1.69.39,2.16,3.62.43a12.31,12.31,0,0,0,1.07,2.26l-1.93,3.07,1.42,1.68,3.33-1.43a13.53,13.53,0,0,0,2.07,1.42l-.1,2.47,7.15-4.13a9.72,9.72,0,0,1-4-.54,9.86,9.86,0,1,1,12.59-6,9.27,9.27,0,0,1-1.11,2.2l5.12-3-.35-.25A12.5,12.5,0,0,0,299.68,320.28Z" transform="translate(-203.39 -265.49)"/><path class="cls-2" d="M289.1,313.26a7.67,7.67,0,1,0,4.66,9.8A7.68,7.68,0,0,0,289.1,313.26Zm1.53,8.81a4.38,4.38,0,1,1-2.67-5.6A4.38,4.38,0,0,1,290.63,322.07Z" transform="translate(-203.39 -265.49)"/><path class="cls-2" d="M420,330.42l.41-2.78-4.21-2a15.79,15.79,0,0,0-.38-3.19l3.64-2.94-1.05-2.61-4.65.34a17.58,17.58,0,0,0-1.91-2.58l1.66-4.35-2.2-1.75-3.86,2.64a16,16,0,0,0-3-1.27l-.73-4.61L401,304.9l-2,4.21a15.62,15.62,0,0,0-3.19.38l-2.94-3.64-2.62,1,.36,4.65a16,16,0,0,0-2.58,1.91l-4.36-1.66-1.74,2.2,2.63,3.86a16.72,16.72,0,0,0-1.27,2.95l-2.32.37,5.81,3.35a12.66,12.66,0,1,1,20.12,11.61l4.66,2.7,3.48,1.33,1.74-2.21-2.63-3.85a15.92,15.92,0,0,0,1.27-2.94Z" transform="translate(-203.39 -265.49)"/><path class="cls-2" d="M408.51,322.35a9.85,9.85,0,0,0-19,3.75l5.1,2.94a4.4,4.4,0,0,1-.42-.84,5.63,5.63,0,1,1,7.3,3.15,5.31,5.31,0,0,1-2.2.39l4.88,2.83A9.84,9.84,0,0,0,408.51,322.35Z" transform="translate(-203.39 -265.49)"/><path class="cls-2" d="M300.79,515.82l-4.3-2.49a9.53,9.53,0,1,1-16.3-9.41l-4.31-2.48-1.54-.35-1.06,1.84,2.38,2.58a13,13,0,0,0-.62,2.34l-3.36,1V511l3.36,1a13,13,0,0,0,.62,2.34L273.28,517l1.06,1.84,3.43-.77a12.56,12.56,0,0,0,1.71,1.71l-.77,3.43,1.84,1,2.58-2.37a12,12,0,0,0,2.34.62l1,3.36h2.12l1.05-3.36a12.21,12.21,0,0,0,2.34-.62l2.59,2.37,1.82-1-.76-3.43a13.16,13.16,0,0,0,1.71-1.71l3.43.77,1.06-1.84Z" transform="translate(-203.39 -265.49)"/><path class="cls-2" d="M291.77,510.61a4.23,4.23,0,0,1-8.43-.55A4.19,4.19,0,0,1,285,506.7L282.05,505a7.42,7.42,0,1,0,12.57,7.27Z" transform="translate(-203.39 -265.49)"/><path class="cls-2" d="M268.74,521.16l-.35-1.37-2.35-.13a8.09,8.09,0,0,0-.79-1.41l1.12-2.07-1-1-2.09,1.06a9.22,9.22,0,0,0-1.39-.82l-.06-2.35-1.37-.38-1.28,2a7.87,7.87,0,0,0-1.61,0l-1.23-2L255,513l-.12,2.34a8.09,8.09,0,0,0-1.41.79L251.38,515l-1,1,1.06,2.09a8.45,8.45,0,0,0-.82,1.39l-2.35.07-.38,1.36,2,1.28a9.61,9.61,0,0,0,0,1.61l-2,1.24.35,1.37,2.35.12a8.09,8.09,0,0,0,.79,1.41L250.18,530l1,1,2.09-1.06a8.45,8.45,0,0,0,1.39.82l.07,2.35,1.36.38,1.28-2a8.65,8.65,0,0,0,1.61,0l1.23,2,1.38-.35.12-2.35a8.76,8.76,0,0,0,1.41-.78l2.07,1.11,1-1-1.06-2.09a8.45,8.45,0,0,0,.82-1.39l2.35-.07.38-1.36-2-1.28a9.61,9.61,0,0,0,0-1.61Zm-8.9,8.1a6.37,6.37,0,1,1,4.61-7.74A6.38,6.38,0,0,1,259.84,529.26Z" transform="translate(-203.39 -265.49)"/><path class="cls-2" d="M257.05,518.29a5,5,0,1,0,6,3.58A4.94,4.94,0,0,0,257.05,518.29ZM259,525.9a2.83,2.83,0,1,1,2.05-3.44A2.83,2.83,0,0,1,259,525.9Z" transform="translate(-203.39 -265.49)"/><path class="cls-2" d="M470.49,426.34V424l-3.69-1.15a13.7,13.7,0,0,0-.69-2.57l2.63-2.85-1.17-2-3.77.84a14.52,14.52,0,0,0-1.89-1.87l.85-3.77-2-1.17-2.84,2.62a12.57,12.57,0,0,0-2.58-.68l-1.15-3.7h-2.33l-1.15,3.7a12.31,12.31,0,0,0-2.57.68l-1.79-1.65v6.67a10.49,10.49,0,1,1,0,16.15v6.67l1.79-1.65a13.7,13.7,0,0,0,2.57.69l1.15,3.68h2.33l1.15-3.68a14,14,0,0,0,2.58-.69l2.84,2.62,2-1.17-.85-3.77a13.43,13.43,0,0,0,1.89-1.88l3.77.85,1.17-2-2.63-2.83a14.23,14.23,0,0,0,.69-2.58Z" transform="translate(-203.39 -265.49)"/><path class="cls-2" d="M453,417a8.2,8.2,0,0,0-6.68,3.47v9.38A8.16,8.16,0,1,0,453,417ZM453,430a4.66,4.66,0,1,1,4.66-4.67A4.66,4.66,0,0,1,453,430Z" transform="translate(-203.39 -265.49)"/><path class="cls-2" d="M440.26,531l.33-2.3-3.49-1.67a12.87,12.87,0,0,0-.31-2.64l3-2.44-.86-2.16-3.86.3a14.39,14.39,0,0,0-1.59-2.13l1.37-3.61L433,513l-3.19,2.19a13.57,13.57,0,0,0-2.44-1l-.62-3.82-2.31-.33-1.66,3.49a13.61,13.61,0,0,0-2.64.32l-2.44-3-2.16.87.3,3.85a14.46,14.46,0,0,0-2.13,1.6l-3.61-1.37-1.44,1.83,2.19,3.18a13.66,13.66,0,0,0-1,2.45l-3.82.62-.33,2.3,3.49,1.67a14.43,14.43,0,0,0,.31,2.64l-3,2.44.86,2.16,3.85-.3a13.24,13.24,0,0,0,1.6,2.12l-1.37,3.61,1.83,1.44,3.18-2.18a13.66,13.66,0,0,0,2.45,1l.61,3.82,2.31.33,1.67-3.49a14.43,14.43,0,0,0,2.63-.32l2.45,3,2.16-.87-.31-3.85a13.72,13.72,0,0,0,2.13-1.59l3.62,1.37,1.43-1.83-2.19-3.18a13,13,0,0,0,1.05-2.45Zm-18.61,6.75a10.48,10.48,0,1,1,11.86-8.89A10.48,10.48,0,0,1,421.65,537.79Z" transform="translate(-203.39 -265.49)"/><path class="cls-2" d="M424.29,519.34a8.16,8.16,0,1,0,6.91,9.23A8.16,8.16,0,0,0,424.29,519.34Zm-1.84,12.81a4.66,4.66,0,1,1,5.28-3.95A4.67,4.67,0,0,1,422.45,532.15Z" transform="translate(-203.39 -265.49)"/><path class="cls-2" d="M484.22,446.77l.17-1.18-1.78-.85a6.63,6.63,0,0,0-.16-1.34l1.53-1.25-.44-1.1-2,.16a6.55,6.55,0,0,0-.81-1.09l.7-1.83-.93-.74-1.62,1.12a6.26,6.26,0,0,0-1.25-.53l-.32-1.95-1.17-.16-.85,1.77A7.44,7.44,0,0,0,474,438l-1.24-1.52-1.11.44.16,2a7.25,7.25,0,0,0-1.08.81l-1.84-.7-.74.94,1.12,1.62a6.17,6.17,0,0,0-.53,1.24l-2,.32-.17,1.18,1.78.84a7.55,7.55,0,0,0,.16,1.35L467,447.68l.44,1.1,2-.15a7.8,7.8,0,0,0,.81,1.08l-.69,1.84.93.73,1.62-1.11a7.33,7.33,0,0,0,1.25.53l.31,1.94,1.17.17.85-1.78a6.73,6.73,0,0,0,1.35-.16l1.24,1.53,1.1-.44-.15-2a6.92,6.92,0,0,0,1.08-.81l1.84.7.73-.93-1.11-1.62a7.69,7.69,0,0,0,.53-1.25Zm-9.48,3.43a5.34,5.34,0,1,1,6-4.53A5.33,5.33,0,0,1,474.74,450.2Z" transform="translate(-203.39 -265.49)"/><path class="cls-2" d="M476.08,440.81a4.15,4.15,0,1,0,3.53,4.7A4.14,4.14,0,0,0,476.08,440.81Zm-.93,6.52a2.37,2.37,0,1,1,2.69-2A2.38,2.38,0,0,1,475.15,447.33Z" transform="translate(-203.39 -265.49)"/><path class="cls-3" d="M360.08,498.17a3.2,3.2,0,0,1-3.2-3.2V429a3.2,3.2,0,0,1,1.6-2.77l11.44-6.6a3.2,3.2,0,0,1,4.8,2.78v66a3.22,3.22,0,0,1-1.6,2.78l-11.44,6.59A3.15,3.15,0,0,1,360.08,498.17Zm3.2-64.1v52.82a1.47,1.47,0,0,0,2.2,1.27h0a5.67,5.67,0,0,0,2.83-4.91V430.43a1.46,1.46,0,0,0-2.19-1.26h0A5.65,5.65,0,0,0,363.28,434.07Z" transform="translate(-203.39 -265.49)"/><path class="cls-3" d="M383,485a3.2,3.2,0,0,1-3.2-3.2v-66a3.2,3.2,0,0,1,1.6-2.77l11.43-6.61a3.21,3.21,0,0,1,4.81,2.78v66a3.22,3.22,0,0,1-1.6,2.78l-11.44,6.6A3.15,3.15,0,0,1,383,485Zm3.2-64.1v52.81a1.46,1.46,0,0,0,2.2,1.27h0a5.66,5.66,0,0,0,2.83-4.9V417.23A1.47,1.47,0,0,0,389,416h0A5.68,5.68,0,0,0,386.15,420.87Z" transform="translate(-203.39 -265.49)"/><path class="cls-3" d="M405.82,471.77a3.15,3.15,0,0,1-1.6-.43,3.2,3.2,0,0,1-1.6-2.77v-66a3.2,3.2,0,0,1,1.6-2.77l11.43-6.61a3.21,3.21,0,0,1,4.81,2.78v66a3.23,3.23,0,0,1-1.61,2.78l-11.43,6.6A3.15,3.15,0,0,1,405.82,471.77Zm3.2-64.1v52.81a1.46,1.46,0,0,0,2.2,1.27h0a5.66,5.66,0,0,0,2.83-4.9V404a1.47,1.47,0,0,0-2.2-1.27h0A5.68,5.68,0,0,0,409,407.67Z" transform="translate(-203.39 -265.49)"/><path class="cls-3" d="M342.75,401.77a3.15,3.15,0,0,1-1.6-.43l-11.44-6.61a3.19,3.19,0,0,1-1.6-2.77v-16.6H297a3.22,3.22,0,0,1-1.6-.43L284,368.33a3.21,3.21,0,0,1,0-5.55l11.43-6.59a3.12,3.12,0,0,1,1.6-.43h31.1V339.15a3.2,3.2,0,0,1,1.6-2.77l11.44-6.6a3.16,3.16,0,0,1,3.2,0l11.44,6.6a3.2,3.2,0,0,1,1.6,2.77v16.61h31.1a3.12,3.12,0,0,1,1.6.43l11.43,6.59a3.21,3.21,0,0,1,0,5.55l-11.43,6.6a3.22,3.22,0,0,1-1.6.43h-31.1V392a3.19,3.19,0,0,1-1.6,2.77l-11.44,6.61A3.15,3.15,0,0,1,342.75,401.77Zm-8.23-11.66,8.23,4.76,8.23-4.76V372.16a3.2,3.2,0,0,1,3.2-3.2h32.54a3.42,3.42,0,0,0,1.7-.46h0a3.41,3.41,0,0,0,0-5.89h0a3.48,3.48,0,0,0-1.7-.45H354.18A3.2,3.2,0,0,1,351,359V341l-8.23-4.75L334.52,341v18a3.2,3.2,0,0,1-3.2,3.2H298.78a3.48,3.48,0,0,0-1.7.45h0a3.4,3.4,0,0,0,0,5.89h0a3.39,3.39,0,0,0,1.7.46h32.54a3.2,3.2,0,0,1,3.2,3.2Z" transform="translate(-203.39 -265.49)"/><path class="cls-3" d="M325.65,498.17a3.18,3.18,0,0,1-1.6-.43l-11.43-6.59a3.26,3.26,0,0,1-1.18-1.18L295.89,463l-14.38,8.3a3.21,3.21,0,0,1-3.2,0l-11.43-6.6a3.22,3.22,0,0,1-1.6-2.78V448.75a3.2,3.2,0,0,1,1.6-2.77l14.38-8.29-15.55-26.94a3.22,3.22,0,0,1-.43-1.6V396a3.2,3.2,0,0,1,4.8-2.78l11.43,6.61a3.15,3.15,0,0,1,1.18,1.17l15.55,26.93,14.38-8.3a3.21,3.21,0,0,1,3.2,0l11.43,6.6a3.2,3.2,0,0,1,1.6,2.77v13.21a3.2,3.2,0,0,1-1.6,2.77l-11.43,6.61h0l-2.94,1.69,15.55,26.94a3.2,3.2,0,0,1,.43,1.6V495a3.2,3.2,0,0,1-1.6,2.77A3.15,3.15,0,0,1,325.65,498.17Zm-8.3-11.69h0a3.4,3.4,0,0,0,5.1-2.95h0a3.36,3.36,0,0,0-.46-1.7l-16.26-28.18a3.18,3.18,0,0,1-.32-2.43,3.25,3.25,0,0,1,1.49-2l15.55-9V430.8l-8.23-4.75-15.55,9a3.2,3.2,0,0,1-4.38-1.17L278,405.68a3.35,3.35,0,0,0-1.24-1.24h0a3.4,3.4,0,0,0-5.1,2.94h0a3.42,3.42,0,0,0,.46,1.7l16.26,28.18a3.19,3.19,0,0,1-1.17,4.37l-15.55,9v9.52l8.23,4.75,15.55-9a3.18,3.18,0,0,1,2.43-.32,3.25,3.25,0,0,1,1.95,1.49l16.26,28.18A3.38,3.38,0,0,0,317.35,486.48Z" transform="translate(-203.39 -265.49)"/><path class="cls-2" d="M333.92,315.87l-75.06,43.34a22.48,22.48,0,0,0-11.24,19.47v86.67a17.65,17.65,0,0,0,8.83,15.3L331.51,524A22.51,22.51,0,0,0,354,524l75.06-43.34a17.65,17.65,0,0,0,8.83-15.3V378.68a22.48,22.48,0,0,0-11.24-19.47l-75.06-43.34A17.68,17.68,0,0,0,333.92,315.87Zm86.91,55.45L348.62,413a11.73,11.73,0,0,1-11.74,0l-72.21-41.69a4,4,0,0,1,0-7l69.25-40a17.68,17.68,0,0,1,17.66,0l69.25,40A4,4,0,0,1,420.83,371.32ZM261,377.66l72.21,41.69a11.75,11.75,0,0,1,5.87,10.17V512.9a4,4,0,0,1-6.07,3.51l-69.25-40a17.67,17.67,0,0,1-8.84-15.3v-80A4.05,4.05,0,0,1,261,377.66Zm85.4,135.24V429.52a11.75,11.75,0,0,1,5.87-10.17l72.21-41.69a4.05,4.05,0,0,1,6.08,3.51v80a17.67,17.67,0,0,1-8.84,15.3l-69.25,40A4,4,0,0,1,346.41,512.9Z" transform="translate(-203.39 -265.49)"/><path class="cls-4" d="M333.18,542.88a1.94,1.94,0,0,0,.35-1.87c-.15-.42-1.44-3.26-1.75-3.75a10.67,10.67,0,0,0-9.14-4.78c-3.91,0-7.51,1.85-10.49,4.25-1.37,1.1-3.23,2.5-4.08,4.08-1.06,2,.47,3.46,2,4.56a17.36,17.36,0,0,0,11.85,3.27A17.71,17.71,0,0,0,333.18,542.88Z" transform="translate(-203.39 -265.49)"/><path class="cls-4" d="M339.26,544.41c-4.37.91-7.56,4.32-9.21,8.34-1.92,4.67-1.59,10-.23,14.76a37.06,37.06,0,0,0,2.91,7.23c.54,1,1.21,1.67,2.4,1.16a16.21,16.21,0,0,0,3.36-2.14,22.6,22.6,0,0,0,8-12.57,24.55,24.55,0,0,0-2.13-17C344.09,543.64,339.53,544.36,339.26,544.41Z" transform="translate(-203.39 -265.49)"/><path class="cls-4" d="M351.7,531c-1,.15-2.33,5.31-2.42,5.8a13.32,13.32,0,0,0,4.53,12.3c4.15,3.72,9.87,4.91,15.29,5,1.41,0,2.81,0,4.21-.13s3.14,0,4.37-.64c2.27-1.13,1.13-4.74.6-6.58a21.87,21.87,0,0,0-8.38-11.64A25.46,25.46,0,0,0,351.7,531Z" transform="translate(-203.39 -265.49)"/><path class="cls-4" d="M453.93,365.8a1.93,1.93,0,0,0-1.79.63c-.29.34-2.1,2.88-2.37,3.39a10.69,10.69,0,0,0,.43,10.31c1.93,3.4,5.36,5.57,8.92,6.95,1.65.64,3.79,1.56,5.57,1.5,2.27-.08,2.77-2.14,3-4a17.3,17.3,0,0,0-3.09-11.89A17.64,17.64,0,0,0,453.93,365.8Z" transform="translate(-203.39 -265.49)"/><path class="cls-4" d="M452.23,359.77c3,3.33,7.51,4.39,11.82,3.81,5-.68,9.44-3.62,12.89-7.19a37.08,37.08,0,0,0,4.82-6.13c.61-1,.84-1.89-.2-2.66a16.53,16.53,0,0,0-3.54-1.84,22.65,22.65,0,0,0-14.89-.66,24.59,24.59,0,0,0-13.66,10.35C449.14,356,452,359.56,452.23,359.77Z" transform="translate(-203.39 -265.49)"/><path class="cls-4" d="M434.35,355.72c.65.82,5.77-.64,6.24-.81A13.29,13.29,0,0,0,449,344.84c1.14-5.45-.67-11-3.32-15.74-.68-1.22-1.43-2.41-2.22-3.57s-1.59-2.71-2.74-3.47c-2.12-1.4-4.66,1.39-6,2.77a21.8,21.8,0,0,0-5.89,13.08A25.46,25.46,0,0,0,434.35,355.72Z" transform="translate(-203.39 -265.49)"/><path class="cls-1" d="M226.35,375.52a21.84,21.84,0,0,1-10.94-2.94,1.37,1.37,0,0,1,.39-2.53,27.36,27.36,0,0,0,16.88-11.93c6.06-9.8,3.3-20,2.69-22a1.37,1.37,0,0,1,.45-1.48,1.39,1.39,0,0,1,1.55-.12,22,22,0,0,1-11,41Zm-3.6-5a1.07,1.07,0,0,0,.26,2,19.22,19.22,0,0,0,18.08-31.29,1.07,1.07,0,0,0-1.87.79,28.78,28.78,0,0,1-16.47,28.48Z" transform="translate(-203.39 -265.49)"/><circle class="cls-1" cx="7.25" cy="78.98" r="4.57"/><path class="cls-1" d="M233.59,337.65a23.5,23.5,0,0,1-17.39,30.11s8.56-10.17,10.76-14S233.59,337.65,233.59,337.65Z" transform="translate(-203.39 -265.49)"/></svg>